<?xml version="1.0" encoding="UTF-8"?> <svg xmlns="http://www.w3.org/2000/svg" viewBox="0 0 384 448"><defs></defs><title>cours-officiel_picto</title><g id="Calque_2" data-name="Calque 2"><g id="Calque_1-2" data-name="Calque 1"><path d="M192,0A128,128,0,1,0,320,128,128,128,0,0,0,192,0Zm0,224a96,96,0,1,1,96-96A96,96,0,0,1,192,224Z"></path><path d="M83.09,222.21,0,368H96l48,80,48-105.81L225.64,268A144.18,144.18,0,0,1,83.09,222.21Z"></path><path d="M300.91,222.21a144.44,144.44,0,0,1-56,39.77l-44.76,98.1L240,448l48-80h96Z"></path><path d="M192,40a88,88,0,1,0,88,88A88,88,0,0,0,192,40Zm58.4,59.8-70.59,90.73c-1.14,1.13-2,1.7-2.55,1.7a4.08,4.08,0,0,1-2.84-1.42l-40-38.56-.85-.85a4.29,4.29,0,0,1-.57-1.7,5,5,0,0,1,.57-1.42l.56-.57q7.93-8.51,12.48-13c1.13-1.13,1.89-1.7,2.27-1.7.75,0,1.7.57,2.83,1.7l22.68,22.12,56.7-72.87a2.36,2.36,0,0,1,1.71-.56,4.68,4.68,0,0,1,2,.56L250.4,96.4a4.34,4.34,0,0,1,.57,1.7A4.29,4.29,0,0,1,250.4,99.8Z"></path></g></g></svg> 